<?xml version="1.0" encoding="UTF-8" standalone="no"?>
<!-- Created with Inkscape (http://www.inkscape.org/) -->

<svg
   xmlns:dc="http://purl.org/dc/elements/1.1/"
   xmlns:cc="http://creativecommons.org/ns#"
   xmlns:rdf="http://www.w3.org/1999/02/22-rdf-syntax-ns#"
   xmlns:svg="http://www.w3.org/2000/svg"
   xmlns="http://www.w3.org/2000/svg"
   xmlns:sodipodi="http://sodipodi.sourceforge.net/DTD/sodipodi-0.dtd"
   xmlns:inkscape="http://www.inkscape.org/namespaces/inkscape"
   width="80"
   height="80"
   viewBox="0 0 80.000001 79.999999"
   id="svg5424"
   version="1.1"
   inkscape:version="0.91 r13725"
   sodipodi:docname="drawing.svg">
  <defs
     id="defs5426" />
  <sodipodi:namedview
     id="base"
     pagecolor="#ffffff"
     bordercolor="#666666"
     borderopacity="1.0"
     inkscape:pageopacity="0.0"
     inkscape:pageshadow="2"
     inkscape:zoom="1.979899"
     inkscape:cx="375"
     inkscape:cy="154.80843"
     inkscape:document-units="px"
     inkscape:current-layer="layer1"
     showgrid="false"
     units="px"
     inkscape:window-width="1855"
     inkscape:window-height="1056"
     inkscape:window-x="65"
     inkscape:window-y="24"
     inkscape:window-maximized="1" />
  <metadata
     id="metadata5429">
    <rdf:RDF>
      <cc:Work
         rdf:about="">
        <dc:format>image/svg+xml</dc:format>
        <dc:type
           rdf:resource="http://purl.org/dc/dcmitype/StillImage" />
        <dc:title></dc:title>
      </cc:Work>
    </rdf:RDF>
  </metadata>
  <g
     inkscape:label="Layer 1"
     inkscape:groupmode="layer"
     id="layer1"
     transform="translate(0,-972.3622)">
    <path
       style="fill:none;fill-rule:evenodd;stroke:#000000;stroke-width:1px;stroke-linecap:butt;stroke-linejoin:miter;stroke-opacity:1"
       d="m 8.0812204,990.74289 c 0,-1.68358 0,-3.36717 0,-5.05076 0,-0.67343 -0.1320715,-1.35995 0,-2.0203 0.046694,-0.23348 0.3985968,-0.29212 0.5050762,-0.50508 0.075292,-0.15058 -0.1505846,-0.42978 0,-0.50508 0.451754,-0.22587 1.0101526,0 1.5152284,0 1.010153,0 2.020306,0 3.030458,0 2.69374,0 5.38748,0 8.08122,0 1.010153,0 2.020306,0 3.030458,0 0.336718,0 0.729987,0.18678 1.010153,0 0.313235,-0.20882 0.238877,-0.74395 0.505076,-1.01015 0.119048,-0.11905 0.336717,0 0.505076,0 0.168359,0 0.336718,0 0.505076,0 0.168359,0 0.505077,-0.16836 0.505077,0 0,0.16836 -0.673435,0 -0.505077,0 0.505077,0 1.036072,0.15972 1.515229,0 0.159719,-0.0532 -0.07529,-0.35449 0,-0.50507 0.10648,-0.21296 0.398597,-0.29212 0.505077,-0.50508 0.07529,-0.15059 -0.168359,-0.50508 0,-0.50508 0.168358,0 0,0.67344 0,0.50508 0,-0.33672 -0.280166,-0.82338 0,-1.01015 0.186842,-0.12456 2.895786,0.13467 3.030457,0 0.119048,-0.11905 -0.09339,-0.365 0,-0.50508 0.264143,-0.39621 0.673435,-0.67343 1.010153,-1.01015 0.168358,-0.16836 0.306969,-0.37301 0.505076,-0.50508 1.716962,-1.14464 0.270875,-0.0677 2.020305,-0.50507 0.365222,-0.0913 0.65301,-0.38603 1.010153,-0.50508 0.27335,-0.0911 1.848238,0 2.020305,0 0.168359,0 0.336717,0 0.505076,0 0.168359,0 0.354492,-0.0753 0.505076,0 0.212959,0.10648 0.336718,0.33672 0.505077,0.50508 0.336717,0.33671 0.613938,0.746 1.010152,1.01015 0.140083,0.0934 0.386029,-0.11905 0.505076,0 0.266199,0.2662 0.13758,0.92848 0.505077,1.01015 1.314797,0.29218 2.69374,0 4.04061,0 1.683587,0 3.367175,0 5.050763,0 3.198816,0 6.397632,0 9.596449,0 0.505076,0 1.010152,0 1.515229,0 0.336717,0 0.772057,-0.23809 1.010152,0 0.03249,0.0325 0,2.78547 0,3.03046 0,2.0203 0,4.04061 0,6.06091 0,1.45274 -0.1716,2.68726 0.505076,4.04061 0.427878,0.85576 1.80332,1.03386 2.525382,1.51523 0.198107,0.13207 0.306969,0.37301 0.505076,0.50508 0.62647,0.41765 1.393835,0.5925 2.020305,1.01015 0.198107,0.13207 0.306969,0.37301 0.505076,0.50508 0.313235,0.20882 0.743954,0.23888 1.010153,0.50507 0.266199,0.2662 0.336717,0.67344 0.505076,1.01016 0.168359,0.33671 0.386029,0.65301 0.505076,1.01015 0.05324,0.15972 -0.05324,0.34536 0,0.50507 0.274178,0.82254 1.337749,2.02029 0.505077,2.02029 -0.336718,0 0,-1.34685 0,-1.01013 0,2.18863 0,4.37733 0,6.56603 0,1.0101 0,2.0203 0,3.0304 0,0.3367 -0.186778,0.73 0,1.0102 0.208823,0.3132 0.801329,0.1918 1.010152,0.505 0.186778,0.2802 -0.150584,0.709 0,1.0102 0.07529,0.1506 0.411688,-0.1401 0.505077,0 0.786651,1.18 0.505076,3.6751 0.505076,5.0508 0,1.5152 0,3.0304 0,4.5456 0,0.5051 0,1.0102 0,1.5153 0,0.1683 0.05324,0.3453 0,0.5051 -0.119048,0.3571 -0.431246,0.641 -0.505076,1.0101 -0.09905,0.4953 0.09905,1.02 0,1.5152 -0.07383,0.3692 -0.336718,0.6735 -0.505077,1.0102 -0.168358,0.3367 -0.238877,0.7439 -0.505076,1.0101 -0.119048,0.1191 -0.505076,0.1684 -0.505076,0 0,-0.1683 0.624124,-0.119 0.505076,0 -0.429232,0.4293 -1.151013,0.5246 -1.515229,1.0102 -0.20203,0.2694 0,0.6734 0,1.0101 0,0.8418 0,1.6836 0,2.5254 0,0.1684 0.05324,0.3454 0,0.5051 -0.07735,0.232 -0.576739,1.3708 -1.010152,1.5152 -0.616027,0.2054 -1.219106,-0.3833 -1.515229,0.5051 -0.10648,0.3194 0.08167,0.6835 0,1.0102 -0.36621,1.4648 -0.394048,0.591 -1.010153,1.5152 -0.208823,0.3132 -0.279199,0.709 -0.505076,1.0101 -0.285714,0.381 -0.673435,0.6735 -1.010153,1.0102 -0.336717,0.3367 -0.601822,0.7651 -1.010152,1.0101 -3.048732,1.8293 -0.21499,-0.265 -2.525381,0.5051 -0.225877,0.075 -0.336718,0.3367 -0.505077,0.5051 -0.673435,0 -1.353638,-0.095 -2.020305,0 -0.527046,0.075 -0.99317,0.4007 -1.515229,0.5051 -0.330178,0.066 -0.673435,0 -1.010152,0 -1.010153,0 -2.020305,0 -3.030458,0 -2.862099,0 -5.724198,0 -8.586296,0 -0.296899,0 -1.946846,0.098 -2.020306,0 -0.416496,-0.5554 -0.285563,-1.3618 -0.505076,-2.0203 -0.119047,-0.3572 -0.386028,-0.653 -0.505076,-1.0102 -0.05324,-0.1597 0,-0.3367 0,-0.5051 0,-0.505 0.09905,-1.0199 0,-1.5152 -0.07383,-0.3691 -0.431246,-0.641 -0.505076,-1.0101 -0.09905,-0.4953 0.159719,-1.0361 0,-1.5153 -0.05324,-0.1597 -0.451837,0.1598 -0.505077,0 -0.159719,-0.4791 0.187581,-1.0462 0,-1.5152 -0.252992,-0.6325 -1.39327,-1.3062 -2.020305,-1.5152 -0.159719,-0.053 -0.336717,0 -0.505076,0 -0.336717,0 -0.673435,0 -1.010153,0 -1.010152,0 -2.020305,0 -3.030457,0 -0.336718,0 -0.673435,0 -1.010153,0 -0.168358,0 -0.354491,-0.075 -0.505076,0 -1.724438,0.8622 1.562062,0.505 -2.020305,0.505 -1.184494,0 0.238095,-0.119 -1.010153,0.5051 -0.47619,0.2381 -0.99317,0.4007 -1.515228,0.5051 -0.443927,0.089 -2.829045,-0.1343 -3.030458,0 -0.396215,0.2641 -0.712679,0.6383 -1.010153,1.0102 -0.379206,0.474 -0.738682,0.9722 -1.010152,1.5152 -0.07529,0.1506 0,0.3367 0,0.5051 -0.168359,0.3367 -0.296253,0.6969 -0.505076,1.0101 -0.463223,0.6948 -0.779191,0.5195 -1.515229,1.0102 -0.198107,0.132 -0.2792,0.4297 -0.505077,0.505 -0.319438,0.1065 -0.673435,0 -1.010152,0 -0.336718,0 -0.673435,0 -1.010153,0 -1.34687,0 -2.69374,0 -4.04061,0 -2.555658,0 -1.653509,0 -3.535534,0 -0.413506,0 -2.1981338,0.1091 -2.5253811,0 -1.7118347,-0.5706 -0.6748386,-0.3437 -1.0101525,-2.0203 -0.07383,-0.3691 -0.4137709,-0.6449 -0.5050763,-1.0101 -0.081666,-0.3267 0.081666,-0.6835 0,-1.0102 -0.1826107,-0.7304 -0.7720573,-1.306 -1.0101526,-2.0203 -0.05324,-0.1597 0,-0.3367 0,-0.5051 0,-0.3367 0,-0.6734 0,-1.0101 0,-1.0102 0,-2.0203 0,-3.0305 0,-1.0101 0,-2.0203 0,-3.0304 0,-0.3367 0.081666,-0.6835 0,-1.0102 -0.091305,-0.3652 -0.3860286,-0.653 -0.5050762,-1.0101 -0.05324,-0.1597 0.05324,-0.3454 0,-0.5051 -0.1190476,-0.3571 -0.4137709,-0.6449 -0.5050763,-1.0102 -0.081666,-0.3266 0,-0.6734 0,-1.0101 0,-0.3367 0,-0.6734 0,-1.0102 0,-1.0101 0,-2.0203 0,-3.0304 0,-2.5254 0,-5.0508 0,-7.5762 0,-1.5152 0,-3.0304 0,-4.5456 0,-0.5051 -0.1597191,-1.0361 0,-1.5153 0.075292,-0.2259 0.3730048,-0.3069 0.5050763,-0.5051 0.2088233,-0.3132 0.2388777,-0.7439 0.5050762,-1.0101 0.1190477,-0.1191 0.3367176,0 0.5050763,0 0.3367175,-0.1684 0.7842756,-0.2039 1.0101526,-0.5051 0.3194382,-0.4259 0.2311602,-1.05868 0.5050762,-1.51521 1.5152284,-2.52538 0.5050763,0 1.5152284,-1.51523 0.208824,-0.31323 0.238878,-0.74395 0.505077,-1.01015 0.238095,-0.2381 0.859568,0.30117 1.010152,0 0.05306,-0.10611 -0.04296,-4.04061 0,-4.04061 0.168359,0 0,0.67344 0,0.50508 0,-0.50508 0,-1.01016 0,-1.51523 0,-0.16836 -0.168358,-0.50508 0,-0.50508 0.168359,0 0.168359,0.50508 0,0.50508 -0.376461,0 -0.653009,-0.38603 -1.010152,-0.50508 -0.159719,-0.0532 -0.339987,0.033 -0.505077,0 -0.6806803,-0.13613 -1.3468696,-0.33672 -2.0203046,-0.50508 z"
       id="path5524"
       inkscape:connector-curvature="0" />
  </g>
</svg>
