<?xml version="1.0" encoding="UTF-8" standalone="no"?>
<!-- Created with Inkscape (http://www.inkscape.org/) -->
<svg id="svg6224" xmlns:rdf="http://www.w3.org/1999/02/22-rdf-syntax-ns#" xmlns="http://www.w3.org/2000/svg" height="200.02" width="200" version="1.0" xmlns:cc="http://creativecommons.org/ns#" xmlns:dc="http://purl.org/dc/elements/1.1/">
 <metadata id="metadata6229">
  <rdf:RDF>
   <cc:Work rdf:about="">
    <dc:format>image/svg+xml</dc:format>
    <dc:type rdf:resource="http://purl.org/dc/dcmitype/StillImage"/>
   </cc:Work>
  </rdf:RDF>
 </metadata>
 <g id="layer1" transform="translate(-69.344 -65.855)">
  <path id="path5417" fill="#fff" d="m93.224 69.923c-10.928 0-19.812 8.904-19.812 19.832v152.2c0 10.96 8.884 19.85 19.812 19.85h152.2c10.97 0 19.86-8.91 19.86-19.85v-152.2c0-10.953-8.91-19.837-19.86-19.837h-152.2z"/>
  <path id="path5419" d="m245.42 265.88c13.2 0 23.92-10.71 23.92-23.92v-152.2c0-13.199-10.7-23.905-23.92-23.905h-152.2c-13.191 0-23.876 10.685-23.876 23.9v152.2c0 13.19 10.665 23.92 23.88 23.92h152.2z"/>
  <path id="path6481" d="m119.34 90.876h15v15.004h10v-15.004h20v15.004h10v-15.004h20v15.004h10v-15.004h15v30.004l-5 10v70l10 15v25h-110v-25l10-15v-70l-5-10v-30.004z" fill-rule="evenodd" stroke="#000" stroke-width="1px" fill="#fff"/>
  <path id="path6483" d="m85 175.02v-30s0-15 15-15 15 15 15 15v30h-30z" fill-rule="evenodd" transform="translate(69.344 65.855)" stroke="#000" stroke-width="1px"/>
  <path id="path6487" d="m159.41 165.63v-19.95s0-9.97 9.97-9.97 9.97 9.97 9.97 9.97v19.95h-19.94z" fill-rule="evenodd" stroke="#000" stroke-width=".66481px"/>
 </g>
</svg>
